<?xml version="1.0" encoding="utf-8"?>
<!-- Generator: Adobe Illustrator 19.2.1, SVG Export Plug-In . SVG Version: 6.00 Build 0)  -->
<svg version="1.1" id="Layer_1" xmlns="http://www.w3.org/2000/svg" xmlns:xlink="http://www.w3.org/1999/xlink" x="0px" y="0px"
	 viewBox="0 0 183 151" style="enable-background:new 0 0 183 151;" xml:space="preserve">
<style type="text/css">
	.st0{fill:#E76542;}
</style>
<rect x="19" y="56" class="st0" width="49" height="49"/>
<rect x="110" y="56" class="st0" width="49" height="49"/>
<rect x="70" y="27" class="st0" width="38" height="38"/>
<rect x="121" y="107" class="st0" width="38" height="38"/>
<rect x="47" y="33" class="st0" width="21" height="21"/>
<rect x="110" y="33" class="st0" width="21" height="21"/>
<rect x="19" y="107" class="st0" width="16" height="16"/>
<rect x="161" y="71" class="st0" width="16" height="16"/>
<rect x="161" y="89" class="st0" width="16" height="16"/>
<rect x="133" y="38" class="st0" width="16" height="16"/>
<rect x="37" y="107" class="st0" width="11" height="11"/>
<rect x="133" y="25" class="st0" width="11" height="11"/>
<rect x="161" y="58" class="st0" width="11" height="11"/>
<rect x="161" y="107" class="st0" width="11" height="11"/>
<rect x="97" y="14" class="st0" width="11" height="11"/>
<rect x="6" y="70" class="st0" width="11" height="11"/>
<rect x="110" y="107" class="st0" width="9" height="9"/>
<rect x="50" y="107" class="st0" width="7" height="7"/>
<rect x="161" y="120" class="st0" width="7" height="7"/>
<rect x="101" y="5" class="st0" width="7" height="7"/>
<rect x="88" y="18" class="st0" width="7" height="7"/>
<rect x="38" y="47" class="st0" width="7" height="7"/>
<rect x="10" y="83" class="st0" width="7" height="7"/>
<rect x="10" y="61" class="st0" width="7" height="7"/>
<rect x="112" y="118" class="st0" width="7" height="7"/>
<rect x="101" y="107" class="st0" width="7" height="7"/>
<rect x="133" y="16" class="st0" width="7" height="7"/>
<rect x="70" y="67" class="st0" width="38" height="38"/>
</svg>
